<svg xmlns="http://www.w3.org/2000/svg" xmlns:xlink="http://www.w3.org/1999/xlink" width="198" height="46" viewBox="0 0 198 46"><defs><style>.a2{fill:#ff6358}.b2{fill:#eb5b51}.c2{fill:#656565}.d2{fill:#fff}.e2{fill:#ededed}.f2{filter:url(#i2)}.g2{filter:url(#g2)}.h2{filter:url(#e2)}.i2{filter:url(#c2)}.j2{filter:url(#a2)}</style><filter id="a2" width="46" height="46" x="76" y="0" filterUnits="userSpaceOnUse"><feOffset dy="2" input="SourceAlpha"/><feGaussianBlur result="b2" stdDeviation="3"/><feFlood flood-opacity=".161"/><feComposite in2="b2" operator="in"/><feComposite in="SourceGraphic"/></filter><filter id="c2" width="46" height="46" x="114" y="0" filterUnits="userSpaceOnUse"><feOffset dy="2" input="SourceAlpha"/><feGaussianBlur result="d2" stdDeviation="3"/><feFlood flood-opacity=".161"/><feComposite in2="d2" operator="in"/><feComposite in="SourceGraphic"/></filter><filter id="e2" width="46" height="46" x="152" y="0" filterUnits="userSpaceOnUse"><feOffset dy="2" input="SourceAlpha"/><feGaussianBlur result="f2" stdDeviation="3"/><feFlood flood-opacity=".161"/><feComposite in2="f2" operator="in"/><feComposite in="SourceGraphic"/></filter><filter id="g2" width="46" height="46" x="0" y="0" filterUnits="userSpaceOnUse"><feOffset dy="2" input="SourceAlpha"/><feGaussianBlur result="h2" stdDeviation="3"/><feFlood flood-opacity=".161"/><feComposite in2="h2" operator="in"/><feComposite in="SourceGraphic"/></filter><filter id="i2" width="46" height="46" x="38" y="0" filterUnits="userSpaceOnUse"><feOffset dy="2" input="SourceAlpha"/><feGaussianBlur result="j2" stdDeviation="3"/><feFlood flood-opacity=".161"/><feComposite in2="j2" operator="in"/><feComposite in="SourceGraphic"/></filter></defs><g><g class="j2" transform="translate(-130 -253) matrix(1, 0, 0, 1, 130, 253)"><circle cx="14" cy="14" r="14" class="a2" transform="translate(85 7)"/></g><g class="i2" transform="translate(-130 -253) matrix(1, 0, 0, 1, 130, 253)"><circle cx="14" cy="14" r="14" class="b2" transform="translate(123 7)"/></g><g class="h2" transform="translate(-130 -253) matrix(1, 0, 0, 1, 130, 253)"><circle cx="14" cy="14" r="14" class="c2" transform="translate(161 7)"/></g><g class="g2" transform="translate(-130 -253) matrix(1, 0, 0, 1, 130, 253)"><circle cx="14" cy="14" r="14" class="d2" transform="translate(9 7)"/></g><g class="f2" transform="translate(-130 -253) matrix(1, 0, 0, 1, 130, 253)"><circle cx="14" cy="14" r="14" class="e2" transform="translate(47 7)"/></g></g></svg>