<svg xmlns="http://www.w3.org/2000/svg" xmlns:xlink="http://www.w3.org/1999/xlink" id="Layer_1" x="0" y="0" version="1.0" viewBox="0 0 36 36" xml:space="preserve" style="enable-background:new 0 0 36 36"><style type="text/css">.st0{fill:#fefefe}.st1{fill:#fdfdfd}.st2{fill:#fcfcfc}.st3{fill:#fbfbfb}.st4{fill:#fafafa}.st5{fill:#f9f9f9}.st6{fill:#f6f6f6}.st7{fill:#f7f7f7}.st8{fill:#f4f4f4}.st9{fill:#f5f5f5}.st10{fill:#f8f8f8}.st11{fill:#eee}.st12{fill:#f2f2f2}.st13{fill:#f3f3f3}.st14{fill:#e7e7e7}.st15{fill:#efefef}.st16{fill:#f1f1f1}.st17{fill:#f0f0f0}.st18{fill:#e3e3e3}.st19{fill:#dadada}.st20{fill:#ececec}.st21{fill:#e9e9e9}.st22{fill:#ededed}.st23{fill:#5d5d5d}.st24{fill:#dbdbdb}.st25{fill:#d0d0d0}.st26{fill:#e6e6e6}.st27{fill:#d1d1d1}.st28{fill:#d8d8d8}.st29{fill:#d9d9d9}.st30{fill:#dcdcdc}.st31{fill:#dfdfdf}.st32{fill:#e1e1e1}.st33{fill:#222}.st34{fill:#e2e2e2}.st35{fill:#b2b2b2}.st36{fill:#bebebe}.st37{fill:#dedede}.st38{fill:#9b9b9b}.st39{fill:#bababa}.st40{fill:#5e5e5e}.st41{fill:#8b8b8b}.st42{fill:#d4d4d4}.st43{fill:#c4c4c4}.st44{fill:#b0b0b0}.st45{fill:#494949}.st46{fill:#9d9d9d}.st47{fill:#313131}.st48{fill:#8c8c8c}.st49{fill:#282828}.st50{fill:#010101}.st51{fill:#040404}.st52{fill:#030303}.st53{fill:#090909}.st54{fill:#060606}.st55{fill:#080808}.st56{fill:#0c0c0c}.st57{fill:#0f0f0f}.st58{fill:#0e0e0e}.st59{fill:#101010}.st60{fill:#1f1f1f}.st61{fill:#212121}.st62{fill:#151515}.st63{fill:#3a3a3a}.st64{fill:#181818}.st65{fill:#343434}.st66{fill:#434343}.st67{fill:#2f2f2f}.st68{fill:#5b5b5b}.st69{fill:#303030}.st70{fill:#3d3d3d}.st71{fill:#2e2e2e}.st72{fill:#7c7c7c}.st73{fill:#898989}.st74{fill:#aaa}.st75{fill:#3e3e3e}.st76{fill:#565656}.st77{fill:#292929}.st78{fill:#020202}.st79{fill:#1b1b1b}.st80{fill:#232323}.st81{fill:#3c3c3c}.st82{fill:none}</style><title>Asset 1</title><path d="M9.6,5.6c-0.3,0-0.5-0.1-0.8,0c-0.1,0-0.2,0.1-0.3,0.1c-0.2,0-0.4,0-0.5-0.2C7.9,5.3,8,5.1,8.1,4.9c0.2-0.3,0.5-0.4,0.8-0.3	c0.2,0,0.4,0.1,0.6,0c0.5-0.1,0.9-0.6,0.8-1.1c0,0,0-0.1,0-0.1c-0.1-0.2-0.1-0.3,0.1-0.4c0.1-0.1,0.3-0.2,0.4-0.2	c0.3-0.1,0.6-0.2,0.8-0.3c0.3-0.2,0.3-0.4,0.1-0.7c-0.1-0.2-0.2-0.3-0.3-0.5c0-0.1-0.1-0.2-0.1-0.3c0-0.3,0.1-0.6,0.4-0.6	c0.5-0.1,0.9,0,1.2,0.3c0.3,0.3,0.3,0.6,0,1C13,1.8,12.9,1.9,12.8,2c0,0.2,0,0.4,0.2,0.5c0.3,0.2,0.6,0.2,0.9,0.3	c0.2,0.1,0.4,0.1,0.6,0.2c0.2,0.1,0.2,0.2,0.1,0.4c0,0.1-0.1,0.2-0.1,0.3c-0.1,0.1-0.1,0.1,0,0.2c0.2,0.3,0.5,0.5,0.7,0.6	c0.3,0.2,0.7,0.3,1,0.5c0.3,0.2,0.4,0.4,0.3,0.8c0,0,0,0.1,0,0.1c0.5,0.2,0.8,0.5,1.1,0.9c0.2,0.2,0.3,0.4,0.6,0.6	c0.6,0.4,1.2,0.8,1.7,1.3c0.3,0.3,0.7,0.6,0.9,1c0.1,0.2,0.2,0.4,0.2,0.6c0,0.1,0,0.1-0.1,0.1c-0.2,0-0.5,0-0.7-0.1	c-0.3-0.2-0.7-0.4-1-0.6c-0.2-0.2-0.4-0.3-0.7-0.4c-0.3-0.1-0.6,0-0.8,0.3c-0.1,0.2-0.2,0.4-0.3,0.6c-0.2,1.1-0.5,2.1-0.7,3.2	c-0.3,1.4-0.6,2.8-0.6,4.3c-0.1,1.1,0,2.3,0.2,3.4c0.2,0.9,0.5,1.7,0.8,2.5c0.3,0.7,0.6,1.3,0.9,1.9c0.4,0.8,0.9,1.6,1.5,2.3	c1.3,1.7,3,2.9,4.9,4c0.2,0.1,0.4,0.2,0.6,0.3c0.1,0,0.1,0,0.2,0c0.4-0.2,0.8-0.5,1.2-0.7c0.3-0.1,0.6-0.3,0.9-0.3	c0.3,0,0.6,0,0.8,0.3c0,0,0,0.1,0,0.1c-0.1,0.2-0.2,0.3-0.4,0.4c-0.2,0.2-0.4,0.3-0.7,0.5c-0.1,0.1-0.2,0.1-0.2,0.3	c0,0.1,0.1,0.2,0.2,0.2c0.2,0.1,0.4,0.1,0.6,0.2c0.4,0,0.7,0.2,1,0.5c0.2,0.1,0.3,0.2,0.5,0.3c0.3,0.1,0.6,0.1,0.9-0.1	c0.1,0,0.1,0,0.2,0c0.2,0.3,0.4,0.4,0.7,0.5c0.3,0.1,0.7,0.2,1,0.3c0.2,0.1,0.4,0.1,0.6,0.2c0.2,0.1,0.2,0.3,0.2,0.5	c0,0.2-0.1,0.4-0.2,0.6c0,0-0.1,0-0.1,0c-0.4,0.1-0.7,0-1.1,0c-0.4-0.1-0.8-0.1-1.2,0c-0.1,0-0.2,0-0.3,0.1c-0.1,0-0.1,0-0.2,0	c-0.4-0.3-0.8-0.4-1.3-0.4c-0.4,0-0.8,0-1.2,0c-0.4,0-0.7,0-1-0.2C25.9,35,25.7,35,25.5,35c-1.3-0.2-2.6-0.5-3.9-0.8	c-0.6-0.2-1.2-0.4-1.8-0.6c-0.8-0.3-1.6-0.6-2.3-0.9c-1.3-0.6-2.5-1.2-3.6-2c-1.1-0.8-2.1-1.7-3-2.7c-1-1.2-1.9-2.5-2.5-3.9	c-0.4-0.8-0.7-1.7-1-2.6c-0.5-1.5-0.9-3.1-1.1-4.6c-0.2-1.3-0.3-2.7-0.2-4c0.1-1.1,0.1-2.2,0.1-3.3C6.1,9,6,8.5,6,8	C5.8,7.3,6.1,6.7,6.7,6.2c0.5-0.4,1.2-0.6,1.8-0.5c0.3,0,0.6,0,0.9-0.1C9.5,5.6,9.5,5.6,9.6,5.6C9.6,5.6,9.6,5.6,9.6,5.6z"/><path d="M15.5,26.8c-0.2,0.1-0.2,0.1-0.1,0.3c0.4,0.4,0.8,0.5,1.3,0.5c-0.4-0.6-0.6-1.3-1.1-1.9	c-0.3-0.4-0.7-0.7-1.1-1.1c-0.6-0.6-1.2-1.1-1.9-1.6c-0.2-0.1-0.3-0.3-0.4-0.5c0,0-0.1-0.1,0-0.1c0,0,0.1,0,0.1,0	c0.4,0.2,0.7,0.5,0.9,0.8c0.1,0.2,0.3,0.3,0.5,0.4c0.2,0.1,0.4,0,0.4-0.2c0.1-0.3,0-0.6-0.2-0.9c-0.1-0.2-0.2-0.4-0.5-0.5	c-0.2-0.1-0.4-0.3-0.5-0.5c-0.1-0.2-0.3-0.5-0.5-0.7c0-0.1,0,0,0.1,0c0.2,0.1,0.4,0.1,0.6,0.1c0.2-0.1,0.3-0.2,0.3-0.4	c0-0.2-0.1-0.5-0.2-0.7c-0.1-0.2-0.2-0.5-0.4-0.7c0,0,0-0.1-0.1-0.1c0,0.2,0,0.3,0,0.5c0,0.2,0.1,0.4,0.1,0.6c0,0.1,0,0.2-0.1,0.2	c-0.1,0-0.1-0.1-0.1-0.1c0-0.1,0-0.2,0-0.3c0-0.5-0.2-0.8-0.6-1c0,0.1-0.1,0.2-0.1,0.2c0,0.1-0.1,0.2-0.1,0.2c0,0.1-0.1,0-0.1,0	c0-0.1,0-0.2,0-0.3c0-0.1,0-0.1-0.1-0.1c0,0-0.1,0-0.1,0c-0.3,0-0.4-0.1-0.5-0.4c0-0.1,0-0.3,0-0.4c0.1-0.2,0.1-0.5-0.1-0.7	c-0.1-0.2-0.2-0.4-0.4-0.6c-0.1-0.2-0.2-0.3-0.2-0.5c0.1,0,0.1,0.1,0.2,0.2c0.1,0.1,0.3,0.2,0.4,0.3c0.3,0.1,0.5,0,0.4-0.3	c0-0.1,0-0.2-0.1-0.2c-0.1-0.2-0.1-0.3-0.2-0.5c0,0,0-0.1-0.1-0.1c-0.1-0.1-0.2-0.2-0.3-0.1c-0.2,0.1-0.3,0.2-0.5,0.3	c-0.1,0-0.2,0.1-0.3,0c-0.1-0.1-0.1-0.2,0-0.3c0.1-0.3,0.2-0.6,0.3-0.8c0,0,0.1-0.1,0-0.1c-0.1,0.1-0.2,0.1-0.3,0.1	c-0.1,0-0.1,0.1-0.2,0.2c-0.1,0.2-0.1,0.4-0.1,0.6c0,0.3,0,0.3-0.3,0.2c-0.1,0-0.2-0.1-0.3,0c-0.1,0.1,0,0.2,0.1,0.3	c0.2,0.4,0.4,0.7,0.6,1.1c0,0.1,0.1,0.1,0.1,0.2c-0.2-0.2-0.3-0.1-0.5,0c-0.2,0.1-0.4,0-0.4-0.2c0-0.2,0-0.5,0-0.7	c0-0.4-0.2-0.7-0.6-0.9c0.1,0,0.1,0,0.2,0C9,14.9,9.1,14.7,9,14.5c-0.1-0.2-0.2-0.3-0.3-0.5c-0.1-0.1-0.1-0.1-0.2-0.2	c0,0-0.1-0.1,0-0.1c0.2-0.1,0.4-0.3,0.6-0.4c0.2-0.1,0.4-0.1,0.5,0.1c0.1,0.2,0.1,0.3,0.2,0.5c-0.1,0-0.3-0.1-0.4,0	c-0.1,0.1-0.1,0.3-0.1,0.4c0,0.2,0,0.4,0.1,0.5c0,0.1,0.1,0.1,0.2,0.1c0.1,0,0.1-0.1,0.1-0.2c0.1-0.2,0.1-0.4,0.2-0.6	c0.2-0.6,0.1-1-0.5-1.4c-0.1-0.1-0.2-0.1-0.3-0.1c-0.1,0-0.2,0-0.2-0.1c-0.2-0.2-0.2-0.5-0.1-0.7C8.9,12,9,11.9,9.1,12	c0,0,0.1,0,0.1,0.1c0.1-0.1,0-0.1,0.1-0.2c0.1-0.2,0.3-0.3,0.5-0.3c0.2,0,0.3,0.1,0.5,0.1c0.1,0,0.2,0,0.3-0.1c0,0,0,0,0.1,0	c0.2-0.1,0.2-0.1,0.2-0.3c0-0.2-0.1-0.4-0.1-0.6c0-0.1,0-0.2,0-0.4c0-0.1,0.1-0.2,0.2-0.2c0.1,0,0.2,0,0.2,0	c0.2,0.2,0.5,0.2,0.8,0.2c0.2,0,0.4-0.1,0.5-0.1c0.2-0.1,0.2-0.2,0.1-0.4c0.1,0,0.2,0,0.3,0.1c0.1,0.1,0.3,0.1,0.4,0.1	c0.2,0,0.4,0,0.5-0.2c0-0.1,0.1-0.1,0.2,0c0.3,0.2,0.6,0.3,0.9,0.5c0.1,0,0.1,0.1,0.2,0c0-0.1,0-0.1-0.1-0.2	c-0.1-0.1-0.2-0.2-0.3-0.4c0.2,0,0.3,0,0.5,0c0.4,0,0.9,0,1.3,0.1c0.1,0,0.2,0,0.3,0c0,0,0.1,0,0.1,0c0.4-0.1,0.6,0.1,0.6,0.4	c0,0.3-0.1,0.6-0.2,1c-0.2,0.4-0.3,0.8-0.6,1.2c0.2,0,0.2,0.1,0.2,0.2c0,0.3-0.1,0.6-0.2,0.9c-0.1,0.4-0.3,0.8-0.5,1.2	c0,0,0.1,0,0.2,0.1c0,0.1,0,0.1,0,0.2c0,0.4-0.2,0.7-0.4,1c0,0,0,0,0,0c0.1,0,0.2,0,0.3,0.1c0.1,0.1,0,0.2-0.1,0.3	c-0.1,0.1-0.1,0.2-0.2,0.3c0,0,0,0,0,0c0-0.1,0-0.1-0.1-0.2c-0.1,0-0.1,0.1-0.2,0.1c-0.1,0.2-0.3,0.5-0.3,0.7	c0.1-0.2,0.2-0.3,0.4-0.4c0.1-0.1,0.2-0.2,0.3-0.1c0.1,0.1,0.1,0.2,0,0.3c-0.1,0.8-0.1,1.7-0.1,2.5c0,0.2,0,0.3,0,0.5	c0,0.2,0,0.4,0.1,0.5c0.1,0.1,0,0.2-0.1,0.2c-0.2,0-0.4,0.2-0.5,0.4c0.4,0.1,0.5,0.3,0.6,0.6c0.1,0.2,0.1,0.4,0.1,0.5	c0,0,0,0.1,0,0.1c0,0,0,0,0,0c0,0,0,0,0,0c0,0,0-0.1,0-0.1c0-0.1,0.1-0.2,0.1-0.3c0,0,0-0.1,0.1-0.1c0,0,0.1,0.1,0.1,0.1	c0.1,0.1,0.1,0.3,0.2,0.4c0.4,0.5,0.4,1.1,0.6,1.7c0.2,0.5,0.3,0.9,0.6,1.3c0.1,0.1,0.2,0.3,0.2,0.5c0,0,0,0.1,0,0.1	c-0.1,0-0.1,0.1-0.1,0.2c0.1,0.4,0.2,0.7,0.4,1c0.4,0.7,1,1.2,1.6,1.6c0.2,0.1,0.4,0.3,0.6,0.4c0.1,0,0.1,0.1,0.2,0.2	c0.2,0.5,0.4,0.9,0.8,1.2c0.3,0.3,0.7,0.5,1.2,0.5c0,0,0,0,0,0.1c-0.1,0.1-0.1,0.2,0,0.3c0.1,0.1,0.3,0.3,0.4,0.3	c0.3,0.2,0.6,0.4,0.9,0.5c0.1,0,0.1,0.1,0.2,0.2c0.1,0.1,0.1,0.1,0,0.1c-0.4,0.1-0.7,0.1-1-0.1c-0.2-0.1-0.4-0.3-0.7-0.4	c-0.5-0.2-0.8-0.6-1.2-0.9c-0.4-0.3-0.7-0.6-1.2-0.7c-0.3-0.1-0.7-0.1-1,0c-0.1,0-0.2,0.1-0.3,0.1c0,0-0.1,0-0.1,0	c0,0,0-0.1,0.1-0.1c0.1-0.1,0.3-0.2,0.4-0.3c0,0,0,0,0-0.1c-0.1,0-0.3,0.1-0.4,0.1c-0.1,0.1-0.3,0.2-0.4,0.2c-0.2,0-0.3,0-0.4-0.2	c-0.1-0.1-0.1-0.2-0.1-0.4c-0.1-0.3-0.3-0.4-0.6-0.4c-0.1,0-0.1,0-0.1-0.1c-0.1-0.1-0.2-0.2-0.2-0.2c-0.2-0.2-0.2-0.3,0.1-0.3	c0,0,0.1,0,0.1,0c-0.1,0-0.1-0.1-0.2-0.1c-0.1,0-0.1-0.1,0-0.1c0.1-0.1,0.2-0.2,0.3-0.2c0,0,0,0,0.1-0.1c-0.3-0.1-0.5-0.2-0.8-0.3	c-0.4-0.2-0.8-0.3-1.1-0.6c-0.2-0.2-0.2-0.4-0.3-0.6c0-0.2,0.1-0.2,0.2-0.1c0.3,0.1,0.5,0.2,0.7,0.4c0,0.1,0,0-0.1,0	C15.5,26.8,15.5,26.8,15.5,26.8z" class="st0"/><path d="M9.8,8.9c0.1-0.1,0.1-0.1,0.1-0.2C10,8.6,10,8.6,9.9,8.5c-0.2,0-0.4-0.1-0.6-0.1C9.1,8.4,9,8.4,8.9,8.4	c-0.1,0,0,0.2-0.1,0.3C8.8,8.8,8.7,8.8,8.5,8.8C8.2,8.7,7.8,8.2,7.7,7.9c0-0.2,0.1-0.3,0.3-0.4c0.1,0,0.2,0,0.3,0	c-0.2-0.3-0.7-0.3-1-0.1C7.1,7.6,7,7.9,6.9,8.1c0,0.2-0.1,0.3-0.1,0.5c0,0,0,0.1,0,0.1c0,0-0.1,0-0.1-0.1C6.6,8.3,6.5,8,6.6,7.7	C6.6,7.3,6.9,7.1,7.2,7c0.5-0.1,0.9-0.1,1.4-0.1c0.1,0,0.2,0,0.3,0c0,0,0,0,0,0C8.6,7.4,8.7,7.6,9,7.9C9.2,8,9.3,8.1,9.5,8.2	c0.1,0.1,0.3,0,0.4,0c0.1,0,0.1-0.1,0-0.2C9.9,8,9.8,7.9,9.7,7.8c0,0-0.1-0.1-0.1-0.2c0-0.1,0.1-0.1,0.2-0.1c0,0,0.1,0,0.2,0	c0-0.1-0.1-0.1-0.1-0.1C9.8,7.3,9.7,7.2,9.6,7.2c0,0-0.1-0.1-0.1-0.2c0-0.1,0.1-0.1,0.1-0.1c0.2,0,0.4,0,0.5,0c1,0.1,2,0.1,2.9,0.1	c1.1,0,2.1,0.1,3.2,0.2c0.8,0.1,1.5,0.3,2.2,0.6c0.1,0,0.1,0.1,0.1,0.2c0.1,0.3-0.1,0.6-0.3,0.7c-0.3,0.3-0.7,0.4-1.2,0.4	c-0.3,0-0.5,0-0.8,0c-0.8,0-1.6-0.1-2.3-0.2c-0.3,0-0.5-0.1-0.8-0.2c-0.4-0.1-0.9-0.1-1.3,0c-0.6,0.1-1.1,0.2-1.7,0.2	C10.2,9,10,9,9.8,8.9z" class="st0"/><path d="M23.1,34.1c-0.5,0-0.9-0.1-1.4-0.2c-1-0.2-1.9-0.6-2.8-1c-1.1-0.5-2.2-1-3.2-1.5c-0.7-0.3-1.2-0.7-1.8-1.2	c-0.8-0.6-1.5-1.2-2.2-1.9c-0.1-0.1-0.1-0.2-0.2-0.2c0,0,0-0.1-0.1-0.1c0.1,0,0.2,0.1,0.2,0.2c0.3,0.2,0.5,0.5,0.8,0.7	c0.3,0.3,0.6,0.6,1,0.8c0.1,0,0.1,0.1,0.2,0.1c-0.1-0.1-0.2-0.2-0.3-0.3c-0.5-0.4-1-0.9-1.4-1.4c0-0.1-0.1-0.1-0.1-0.2	c0.2,0.1,0.4,0.2,0.5,0.3c1,1,2.1,1.8,3.2,2.7c0.1,0.1,0.2,0.1,0.3,0.2c0.3,0.4,0.8,0.5,1.2,0.7c0.6,0.3,1.2,0.6,1.8,0.8	c0.3,0.1,0.7,0.2,1,0.2c0.1,0,0.1,0,0.2,0c0.4,0.3,0.8,0.5,1.3,0.6c0.4,0.1,0.9,0.2,1.3,0.4C22.8,33.9,22.9,34,23.1,34.1z" class="st0"/><path d="M9.7,24.4c-0.1,0.1-0.1,0.1-0.1,0.3c0.1,0.1,0.2,0.3,0.2,0.4c0.1,0.2,0.2,0.5,0.5,0.6c0.3,0.2,0.4,0.5,0.6,0.8	c0,0.1,0.1,0.2,0,0.3c-0.1,0.1-0.2,0-0.3,0c-0.4-0.2-0.7-0.5-0.9-0.9C9.5,25.4,9.3,25,9,24.6c-0.4-0.6-0.7-1.3-0.9-2	c-0.3-1.4-0.8-2.8-1.2-4.1c-0.2-0.8-0.3-1.5-0.4-2.3c0-0.1,0-0.2,0-0.2c0.1,0,0.1,0.1,0.1,0.2c0.1,0.4,0.2,0.7,0.3,1.1	c0,0.7,0.2,1.2,0.5,1.8c0.1,0.3,0.3,0.6,0.3,0.9c0,0,0,0,0,0c0,0.2,0.1,0.4,0.2,0.6c0.2,0.3,0.3,0.6,0.3,0.9c0,0.2,0,0.5,0,0.7	c0,0.3,0.2,0.5,0.4,0.6c0,0,0.1,0,0.1,0c0.2,0,0.2,0.1,0.3,0.3C9,23.4,9,23.7,9.1,23.9C9.2,24.1,9.4,24.3,9.7,24.4	C9.7,24.4,9.7,24.4,9.7,24.4z" class="st0"/><path d="M10.6,19.9c0,0,0-0.1-0.1-0.1c0,0,0-0.1,0-0.1c0,0,0.1,0,0.1,0c0.2,0.1,0.4,0.2,0.6,0.4	c0.1,0.1,0.3,0.2,0.4,0.3c0,0,0.1,0,0.1,0.1c0,0-0.1,0.1-0.1,0.1c-0.1,0-0.2,0-0.3,0c-0.1,0-0.2,0-0.2,0.1c0,0.1,0,0.1,0.1,0.2	c0.1,0.1,0.1,0.1,0.2,0.2c-0.1,0-0.2,0-0.3-0.1c-0.1,0-0.1-0.1-0.2,0c0,0.1,0,0.1,0.1,0.2c0.1,0.1,0.2,0.3,0.3,0.4	c0,0,0.1,0.1,0,0.1c-0.1,0.1-0.1,0.1,0,0.2c0.1,0.1,0.1,0.2,0.2,0.4c0.1,0.1,0.1,0.3,0,0.4c0,0,0,0.1,0,0.1c0.1,0.1,0.1,0.2,0.2,0.3	c0,0,0.1,0.1,0,0.1c-0.1,0-0.2-0.2-0.4-0.3c-0.3-0.3-0.5-0.6-0.9-0.9c-0.2-0.2-0.4-0.4-0.6-0.6c0-0.1-0.1-0.1-0.1-0.2	c0,0,0-0.1,0-0.1c0,0,0,0,0.1,0c0.1,0.1,0.3,0.2,0.4,0.4c0,0,0,0,0.1,0c-0.2-0.3-0.4-0.6-0.6-1c0.1,0,0.1,0.1,0.2,0.1	c0,0,0.1,0,0.1,0c0,0,0-0.1,0-0.1c-0.1-0.1-0.2-0.3-0.2-0.4c0-0.1-0.1-0.1-0.1-0.2c0.1-0.1,0.1,0,0.2,0c0,0,0,0,0,0	c0,0,0.1,0.1,0.1,0c0,0,0-0.1,0-0.1c0-0.1,0-0.1,0-0.2c0.1,0,0.1,0,0.1,0C10.5,19.9,10.5,19.9,10.6,19.9	C10.6,20,10.6,19.9,10.6,19.9z" class="st0"/><path d="M14.6,6.3c0,0.2-0.1,0.4-0.2,0.5c-0.2,0.2-0.3,0.2-0.5,0c-0.1-0.1-0.2-0.2-0.2-0.4c0-0.1-0.1-0.3-0.1-0.4	c0-0.1-0.1-0.2-0.2-0.2c-0.1,0-0.1,0.1-0.1,0.2c0,0.1,0,0.1,0,0.2c0,0,0,0.1,0,0.1C13,6,12.6,5.8,12.1,5.7c-0.6-0.1-1.1-0.1-1.7-0.1	c-0.1,0-0.2,0-0.2-0.1c0-0.1,0.1-0.1,0.2-0.1c0.6,0,1.2,0,1.8,0c0.8,0,1.6,0,2.5,0.1c0.1,0,0.2,0,0.3,0.1c0.1,0,0.1,0.1,0.1,0.2	c0,0,0,0-0.1,0.1C14.9,6,14.9,6.2,15,6.3c0,0.1,0.1,0.2,0.1,0.3c0,0,0.1,0.1,0,0.1c-0.1,0-0.1,0-0.1-0.1C14.8,6.5,14.8,6.4,14.6,6.3	C14.7,6.2,14.7,6.3,14.6,6.3z" class="st0"/><path d="M10.8,17.3c0,0.3-0.1,0.5-0.1,0.8c0,0.2,0.1,0.4,0.2,0.5c0.1,0.2,0.2,0.5,0.2,0.7c0,0.1-0.1,0.1-0.1,0.1	c-0.1-0.1-0.2-0.1-0.3-0.2c-0.4-0.3-0.7-0.7-1.1-1c-0.1-0.1-0.3-0.2-0.4-0.3c0,0-0.2-0.1,0-0.2c0,0,0-0.1,0-0.1	c-0.1-0.2-0.1-0.3-0.1-0.5c0-0.1,0.1-0.2,0.2-0.1c0.1,0,0.2,0.1,0.4,0.2c0.2,0.1,0.3,0.3,0.5,0.4c0,0,0.1,0.1,0.1,0.1	c0.1,0,0.2,0,0.2-0.2c0-0.2,0-0.4-0.1-0.5c0-0.1,0-0.1,0.1-0.1c0.1,0,0.1,0.1,0.2,0.1C10.8,17.1,10.9,17.2,10.8,17.3z" class="st0"/><path d="M12.1,24.7c-0.4-0.1-0.9-0.2-1.2-0.5c0,0-0.1-0.1-0.1-0.1c-0.2-0.1-0.3-0.3-0.4-0.5c-0.1-0.2,0-0.3,0.2-0.2	c0.3,0.1,0.5,0.2,0.8,0.4c0.3,0.2,0.6,0.4,0.9,0.6c0,0,0,0,0,0c0.1,0.1,0.2,0.1,0.2,0.2C12.4,24.7,12.3,24.7,12.1,24.7z" class="st0"/><path d="M14.3,5c-0.1-0.1-0.1-0.1-0.2-0.2c-0.1-0.1-0.1,0-0.1,0.1c0,0.1,0,0.1,0,0.2c0,0.2-0.1,0.3-0.4,0.2	c-0.2-0.1-0.3-0.2-0.4-0.4c-0.2-0.3-0.3-0.6-0.2-0.9c0,0,0-0.1,0-0.1C13,3.9,13,3.9,13.2,4c0.3,0.2,0.5,0.3,0.8,0.5	C14.1,4.6,14.2,4.8,14.3,5z" class="st0"/><path d="M27.8,33.6c-0.1,0.1-0.3,0.1-0.4,0.1c-0.3,0-0.5-0.1-0.8-0.2c-0.5-0.2-1-0.4-1.5-0.5c-0.1,0-0.2-0.1-0.3-0.1	c-0.1,0-0.1-0.1,0-0.1c0.1-0.1,0.2-0.1,0.3-0.1c0.2,0,0.4,0,0.6,0.1c0.6,0.2,1.1,0.4,1.6,0.7C27.5,33.4,27.6,33.5,27.8,33.6z" class="st0"/><path d="M6.9,14.4C7,14.8,7,15.2,7,15.7c0,0.4,0.1,0.8,0.2,1.1c0,0,0,0.1,0,0.1c-0.3-0.4-0.4-0.8-0.5-1.2	c-0.1-0.5-0.1-1-0.2-1.5c0-0.3-0.1-0.6-0.1-1c0-0.1,0-0.2,0.1-0.3c0.1,0,0.1,0.1,0.1,0.2c0.1,0.3,0.2,0.5,0.2,0.8c0,0,0,0.1,0,0.2	c0,0,0,0.1,0,0.1C6.8,14.3,6.9,14.4,6.9,14.4z" class="st0"/><path d="M11.8,1.4c-0.2-0.3-0.1-0.7,0.2-0.9c0.2-0.1,0.4-0.1,0.6,0c0.2,0.1,0.3,0.3,0.3,0.6c0,0.1-0.1,0.2-0.2,0.1	c-0.1,0-0.2-0.1-0.4-0.1C12.2,1.1,12.1,1,12,1c-0.2-0.1-0.3,0-0.2,0.2C11.8,1.3,11.8,1.3,11.8,1.4z" class="st0"/><path d="M20.3,31c0,0.1,0,0.2-0.1,0.4c0,0.1-0.4,0.2-0.5,0.2c-0.1,0-0.1-0.1-0.1-0.2c0-0.2,0-0.2-0.2-0.1	c-0.1,0-0.1,0-0.2,0c0,0-0.1,0-0.1,0c0,0,0-0.1,0-0.1c0-0.1,0.1-0.1,0.2-0.2c0.2-0.1,0.5-0.2,0.7-0.3C20.3,30.8,20.3,30.8,20.3,31z" class="st0"/><path d="M15,30.3c0.2,0.1,0.5,0.2,0.7,0.3c0.4,0.2,0.7,0.4,1.1,0.6c0.2,0.1,0.3,0.2,0.5,0.4c-0.1,0-0.1,0-0.2,0	C16.3,31.3,15.7,30.9,15,30.3C15.1,30.3,15,30.3,15,30.3z" class="st1"/><path d="M10,10.5c-0.2-0.2-0.5-0.4-0.7-0.6c0,0,0.1,0,0.1,0C9.7,10,10,10,10.2,10.1c0.1,0,0.1,0.1,0.1,0.1	c0.2,0.1,0.1,0.3,0,0.4c-0.2,0.1-0.6,0.1-0.8-0.1c0,0,0,0-0.1-0.1c0,0,0-0.1,0-0.1c0,0,0.1,0,0.1,0C9.7,10.4,9.9,10.4,10,10.5z" class="st1"/><path d="M6.8,14.2C6.8,14.2,6.8,14.1,6.8,14.2c0-0.3,0-0.6,0-0.8c0-0.2,0-0.4,0-0.6c0,0,0-0.1,0.1-0.1c0,0,0,0,0.1,0.1	c0.1,0.3,0.2,0.6,0.2,0.9c0,0.2,0,0.5,0,0.7c0,0.1,0,0.1-0.1,0.2c-0.1,0-0.1-0.1-0.2-0.2C6.8,14.3,6.8,14.3,6.8,14.2z" class="st1"/><path d="M13.8,25.3c-0.2,0-0.4-0.1-0.6-0.2c-0.3-0.2-0.4-0.5-0.7-0.8c0,0,0-0.1,0-0.1c0,0,0.1,0,0.1,0	c0.3,0.1,0.5,0.3,0.6,0.5c0.1,0.1,0.2,0.2,0.3,0.3c0.1,0,0.2,0.1,0.3,0.2C13.9,25.2,13.9,25.2,13.8,25.3	C13.9,25.3,13.9,25.3,13.8,25.3z" class="st1"/><path d="M11.1,4.5c0.2-0.1,0.3-0.1,0.4-0.1c0.3,0,0.6,0,1,0c0.1,0,0.4,0.3,0.4,0.4c0,0.1,0,0.1-0.1,0	c-0.1,0-0.2-0.1-0.3-0.1c-0.2-0.1-0.4-0.2-0.6-0.2c-0.1,0-0.3,0-0.4,0C11.3,4.6,11.2,4.6,11.1,4.5z" class="st1"/><path d="M14.9,25.3c-0.4-0.1-0.8-0.2-1.1-0.5c-0.1-0.1-0.2-0.2-0.3-0.2c0,0-0.1,0-0.1-0.1c0,0,0.1,0,0.1,0	c0.3,0.1,0.6,0.2,0.7,0.4c0.1,0.1,0.2,0.1,0.3,0.2C14.7,25.1,14.8,25.1,14.9,25.3z" class="st2"/><path d="M32.1,34.9c-0.3,0-0.7-0.1-1-0.1c-0.2,0-0.4-0.1-0.6-0.2c0,0-0.1,0-0.1-0.1c0,0,0.1,0,0.1,0	C31.1,34.5,31.6,34.6,32.1,34.9C32.1,34.8,32.1,34.8,32.1,34.9z" class="st2"/><path d="M20.8,10C20.8,10,20.8,10,20.8,10c0,0.1-0.1,0.2-0.1,0.2c-0.1,0-0.1-0.1-0.1-0.2c0-0.1-0.1-0.1-0.1-0.2	c-0.1-0.1-0.2-0.2-0.3-0.3c0-0.1,0-0.1,0.1-0.1C20.5,9.4,20.8,9.7,20.8,10z" class="st2"/><path d="M13.9,26.8c-0.2,0-0.3-0.1-0.4-0.2c-0.2-0.1-0.4-0.2-0.4-0.5c0,0,0-0.1,0-0.1c0,0,0.1,0,0.1,0	C13.4,26.2,13.7,26.5,13.9,26.8C13.9,26.8,13.9,26.8,13.9,26.8z" class="st3"/><path d="M20.9,31.3c0.1,0,0.2,0,0.2,0.1c0,0.1-0.1,0.1-0.2,0.2c-0.1,0.1-0.2,0.1-0.4,0.1c0,0-0.1,0.1-0.2,0	c0-0.1-0.1-0.2,0-0.2c0.1-0.1,0.1-0.1,0.2-0.1C20.7,31.3,20.8,31.3,20.9,31.3z" class="st2"/><path d="M8.4,10c0.1,0,0.2,0,0.3,0.1c0.1,0.1,0.1,0.1,0,0.2c-0.1,0.1-0.2,0.1-0.3,0.1c-0.1,0-0.1-0.1-0.2-0.1	c0-0.1-0.1-0.1-0.1-0.2C8.3,10,8.4,10,8.4,10z" class="st2"/><path d="M13.4,3.3c-0.1,0-0.3,0-0.4-0.1c-0.1,0-0.1-0.1,0-0.1C13,3.1,13.1,3,13.1,3c0.2,0,0.3,0,0.5,0.1	c0,0,0.1,0,0.1,0.1c0,0-0.1,0-0.1,0C13.5,3.3,13.5,3.3,13.4,3.3z" class="st4"/><path d="M8.2,12.2c0,0.1,0,0.1-0.1,0.1c-0.1-0.1-0.2-0.1-0.3-0.2c-0.1-0.1,0-0.2,0.1-0.2C8,11.8,8.2,12,8.2,12.2z" class="st3"/><path d="M14,25.9c-0.2,0-0.6-0.3-0.7-0.5C13.5,25.3,13.9,25.7,14,25.9z" class="st4"/><path d="M7.9,11.3c0.2,0.1,0.3,0.1,0.4,0.3c0,0,0.1,0.1,0,0.1c0,0.1-0.1,0.1-0.2,0C8.1,11.7,8,11.6,7.9,11.3	C7.8,11.4,7.8,11.4,7.9,11.3C7.9,11.3,7.9,11.3,7.9,11.3z" class="st4"/><path d="M12.8,23.9c-0.1,0-0.1,0-0.2,0c-0.2-0.1-0.4-0.2-0.5-0.3c0-0.1-0.1-0.1-0.1-0.2c0-0.1,0.1,0,0.2,0.1	C12.5,23.5,12.7,23.7,12.8,23.9z" class="st5"/><path d="M7,12.1c-0.2-0.1-0.3-0.2-0.3-0.4c0-0.1,0-0.1,0.1-0.2c0.1,0,0.1,0.1,0.1,0.1C7,11.8,7,11.9,7,12.1z" class="st4"/><path d="M22.6,32.6c0.1,0,0.1,0,0.1,0c0,0.1-0.1,0.1-0.1,0.1c-0.1,0.1-0.3,0.1-0.4,0.2c0,0-0.1,0-0.1,0	c0-0.1,0-0.1,0-0.1c0.1-0.1,0.2-0.1,0.3-0.1C22.5,32.6,22.6,32.6,22.6,32.6z" class="st4"/><path d="M20.9,31.8C20.9,31.8,20.9,31.8,20.9,31.8c0.1,0.1,0.1,0.1,0,0.1c-0.1,0.1-0.3,0.2-0.4,0.2c0,0-0.1,0-0.1-0.1	c0,0,0-0.1,0.1-0.1C20.6,31.8,20.7,31.8,20.9,31.8z" class="st5"/><path d="M16,28.5c0.1,0,0.2,0,0.4,0.1c0,0,0.1,0,0.1,0.1c0,0,0,0-0.1,0.1c-0.1,0-0.3,0.1-0.4,0c0,0-0.1-0.1-0.1-0.1	C15.9,28.4,15.9,28.5,16,28.5z" class="st6"/><path d="M12.4,20c0.2,0,0.3,0.2,0.3,0.3c0,0,0,0.1-0.1,0.1c-0.1-0.1-0.2-0.1-0.3-0.2C12.3,20.1,12.2,20.1,12.4,20	C12.3,20,12.3,20,12.4,20z" class="st6"/><path d="M14.2,27.7c0.1,0,0.2,0,0.3,0.1c0.1,0.1,0.1,0.1,0,0.2c-0.1,0.1-0.1,0-0.1,0c-0.1,0-0.2-0.1-0.2-0.2	c0,0-0.1-0.1,0-0.1C14.1,27.7,14.2,27.7,14.2,27.7z" class="st4"/><path d="M21.2,32.2C21.2,32.2,21.2,32.2,21.2,32.2c0-0.2,0.2-0.3,0.3-0.3c0,0,0.1,0,0.1,0c0,0,0,0.1,0,0.1	C21.5,32.1,21.4,32.2,21.2,32.2z" class="st6"/><path d="M8.4,15.3c0.1,0,0.2,0,0.3,0.1c0,0,0.1,0,0.1,0.1c0,0-0.1,0-0.1,0.1c-0.1,0-0.2,0-0.3-0.1	C8.3,15.4,8.3,15.3,8.4,15.3C8.3,15.2,8.4,15.3,8.4,15.3z" class="st7"/><path d="M9.5,20.1C9.5,20.1,9.5,20.1,9.5,20.1c-0.2-0.1-0.3-0.2-0.4-0.4c0,0,0,0,0-0.1c0,0,0,0,0,0	C9.2,19.6,9.5,19.9,9.5,20.1z" class="st8"/><path d="M8.8,19.3c-0.1-0.1-0.2-0.2-0.3-0.3c0,0,0-0.1,0-0.1c0,0,0.1,0,0.1,0C8.8,18.9,8.8,19.1,8.8,19.3	C8.9,19.2,8.9,19.3,8.8,19.3z" class="st9"/><path d="M21.7,32.3C21.7,32.3,21.8,32.3,21.7,32.3c0.1,0.1,0.1,0.1,0,0.1c-0.1,0-0.2,0.1-0.2,0.1c-0.1,0-0.1,0-0.1,0	c0-0.1,0-0.1,0-0.1C21.5,32.3,21.6,32.3,21.7,32.3z" class="st10"/><path d="M10.5,22.7c0.2,0.1,0.4,0.1,0.5,0.3C10.8,23,10.6,23,10.5,22.7z" class="st11"/><path d="M13.3,28.5c0,0.1-0.1,0.1-0.1,0.1c0,0-0.2-0.1-0.2-0.2c0-0.1,0.1-0.1,0.1-0.1C13.2,28.4,13.3,28.4,13.3,28.5z" class="st6"/><path d="M12.1,26.9c0.1,0,0.1,0,0.2,0c0,0,0.1,0,0.1,0c0,0,0,0-0.1,0.1c-0.1,0.1-0.3,0.1-0.4,0c0,0,0,0,0-0.1	c0,0,0,0,0,0C12,26.9,12,26.9,12.1,26.9z" class="st12"/><path d="M7.7,8.6C7.7,8.7,7.6,8.7,7.7,8.6C7.6,8.7,7.5,8.8,7.4,8.8c-0.1,0-0.1-0.1-0.1-0.1c0-0.1,0.1-0.1,0.2-0.1	C7.6,8.6,7.6,8.6,7.7,8.6z" class="st12"/><path d="M12.4,26.1c0.1,0,0.2,0,0.2,0.1c0,0,0.1,0.1,0,0.1c0,0-0.1,0.1-0.1,0C12.5,26.3,12.5,26.2,12.4,26.1	C12.4,26.2,12.3,26.1,12.4,26.1C12.4,26.1,12.4,26.1,12.4,26.1z" class="st11"/><path d="M14.3,29.7c0.1,0,0.2,0,0.2,0.1c0,0,0,0.1,0,0.1c0,0.1-0.1,0-0.1,0c0,0-0.1-0.1-0.1-0.1	C14.2,29.8,14.2,29.8,14.3,29.7C14.2,29.7,14.2,29.7,14.3,29.7z" class="st7"/><path d="M13.4,27.3c0.2,0,0.3,0,0.4,0.1c0.1,0,0,0.1,0,0.1c-0.1,0-0.1,0-0.2,0C13.5,27.4,13.4,27.4,13.4,27.3z" class="st8"/><path d="M11.2,23.2c0.2,0,0.3,0.1,0.4,0.2c0,0,0,0,0,0.1c0,0,0,0-0.1,0C11.3,23.5,11.3,23.3,11.2,23.2z" class="st13"/><path d="M21.8,32.5c0.2-0.1,0.3-0.1,0.5-0.1C22.2,32.5,22,32.6,21.8,32.5z" class="st14"/><path d="M9,10.6c0.1,0,0.1,0,0.2,0c0,0,0.1,0.1,0,0.1c0,0-0.1,0.1-0.1,0c0,0-0.1,0-0.1-0.1C8.9,10.7,8.9,10.7,9,10.6	C8.9,10.6,8.9,10.6,9,10.6z" class="st15"/><path d="M7.9,12.6c-0.1-0.1-0.2-0.2-0.3-0.2c0,0,0,0,0-0.1c0,0,0,0,0.1,0C7.7,12.3,7.9,12.4,7.9,12.6z" class="st16"/><path d="M18.4,26.5c0,0,0,0.1-0.1,0.1c-0.1,0-0.2,0-0.2-0.1c0-0.1,0.1-0.1,0.1-0.1C18.3,26.4,18.4,26.5,18.4,26.5z" class="st17"/><path d="M26.2,31.5c0,0,0.1,0,0.1,0.1c0,0.1-0.1,0.1-0.1,0.1c-0.1,0-0.1-0.1-0.1-0.1C26,31.5,26.1,31.6,26.2,31.5z" class="st9"/><path d="M8.7,10.8c0,0,0,0.1-0.1,0.1c-0.1,0-0.2,0-0.2-0.1c0-0.1,0.1-0.1,0.2-0.1C8.7,10.7,8.7,10.8,8.7,10.8z" class="st9"/><path d="M23.5,34.2C23.6,34.2,23.6,34.2,23.5,34.2c0.1,0,0.2,0,0.2,0.1c0,0,0,0,0,0.1c-0.1,0-0.1,0.1-0.2,0c0,0,0,0,0,0	c0,0-0.1,0-0.1-0.1C23.4,34.1,23.5,34.2,23.5,34.2z" class="st9"/><path d="M19.5,30.7c-0.1,0.1-0.3,0.2-0.5,0.1C19.2,30.8,19.4,30.7,19.5,30.7z" class="st18"/><path d="M16,29c-0.1,0-0.2,0-0.3-0.1c-0.1,0-0.2-0.1-0.3-0.1C15.5,28.8,15.9,28.9,16,29L16,29z" class="st19"/><path d="M8.5,20.3c-0.1-0.1-0.2-0.3-0.2-0.4C8.4,19.9,8.5,20.1,8.5,20.3C8.5,20.3,8.5,20.3,8.5,20.3z" class="st20"/><path d="M14,26.4c0.1,0,0.2,0,0.2,0.1c0,0,0,0.1-0.1,0.1C14.1,26.6,13.9,26.4,14,26.4C13.9,26.4,14,26.4,14,26.4z" class="st15"/><path d="M10.2,16c0,0,0,0.1-0.1,0.1c-0.1,0-0.1-0.1-0.1-0.1c0-0.1,0-0.1,0.1-0.1C10.2,15.8,10.2,15.9,10.2,16z" class="st12"/><path d="M28.5,33.8c0,0,0,0.1-0.1,0.1c0,0-0.1,0-0.1-0.1C28.3,33.7,28.4,33.7,28.5,33.8C28.5,33.7,28.5,33.7,28.5,33.8	z" class="st11"/><path d="M17.5,31.1C17.5,31.1,17.5,31.1,17.5,31.1c0-0.1,0.1-0.2,0.2-0.2c0,0,0.1,0,0.1,0C17.7,31,17.6,31,17.5,31.1z" class="st20"/><path d="M18.8,27.4c-0.1,0-0.2,0-0.2-0.1c0,0-0.1,0,0-0.1c0,0,0.1,0,0.1,0C18.8,27.2,18.8,27.3,18.8,27.4z" class="st17"/><path d="M8.9,18C8.9,18,9,18,9,18.1c0,0,0,0.1-0.1,0.1c-0.1,0-0.2,0-0.2-0.1C8.8,18,8.8,18,8.9,18z" class="st21"/><path d="M29.9,34.2C29.9,34.2,29.8,34.2,29.9,34.2c-0.1-0.1,0-0.2,0-0.2c0.1,0,0.1,0,0.1,0.1	C30,34.2,30,34.2,29.9,34.2z" class="st22"/><path d="M27.8,31.2C27.8,31.2,27.8,31.3,27.8,31.2c0,0.1,0.1,0.2,0,0.2c0,0-0.1,0-0.1-0.1	C27.7,31.3,27.7,31.3,27.8,31.2z" class="st15"/><path d="M11.3,25c-0.1-0.1-0.2-0.2-0.3-0.3C11.2,24.7,11.3,24.8,11.3,25z" class="st14"/><path d="M8.3,14.5c0.1,0,0.2,0,0.3,0.1C8.5,14.6,8.4,14.7,8.3,14.5z" class="st21"/><path d="M6.8,13.4c0,0.2,0,0.5,0,0.7c0-0.1,0-0.1,0-0.2C6.8,13.8,6.8,13.6,6.8,13.4z" class="st23"/><path d="M11.5,9.5C11.5,9.5,11.4,9.6,11.5,9.5c-0.1,0.1-0.2,0.1-0.2,0C11.3,9.5,11.3,9.4,11.5,9.5	C11.4,9.4,11.5,9.4,11.5,9.5z" class="st20"/><path d="M13.6,23.4C13.6,23.4,13.6,23.4,13.6,23.4c-0.1,0-0.1,0-0.1-0.1c0,0,0-0.1,0.1-0.1	C13.6,23.3,13.6,23.3,13.6,23.4z" class="st24"/><path d="M6.9,10.2C6.9,10.2,6.9,10.3,6.9,10.2c-0.1,0.1-0.1,0-0.1,0C6.8,10.2,6.8,10.1,6.9,10.2	C6.9,10.1,6.9,10.2,6.9,10.2z" class="st25"/><path d="M12.3,27.9C12.4,27.9,12.4,27.9,12.3,27.9c0.1,0.1,0,0.2,0,0.2c0,0-0.1,0-0.1-0.1	C12.2,27.9,12.3,27.9,12.3,27.9z" class="st26"/><path d="M13.1,22.9c0,0-0.1,0-0.1-0.1c0,0,0-0.1,0.1-0.1C13.1,22.7,13.1,22.8,13.1,22.9C13.1,22.9,13.1,22.9,13.1,22.9	z" class="st21"/><path d="M12.2,2.8C12.2,2.7,12.2,2.7,12.2,2.8c0.1-0.1,0.2-0.1,0.2-0.1c0,0,0,0,0,0C12.3,2.8,12.3,2.8,12.2,2.8	C12.2,2.8,12.2,2.8,12.2,2.8z" class="st27"/><path d="M12.6,25.3C12.6,25.3,12.6,25.3,12.6,25.3c-0.1,0-0.2,0-0.2-0.1c0,0,0,0,0,0C12.5,25.2,12.6,25.2,12.6,25.3	C12.6,25.3,12.6,25.3,12.6,25.3z" class="st26"/><path d="M11.8,27.5C11.8,27.6,11.8,27.6,11.8,27.5c-0.1,0-0.2,0-0.2,0c0,0,0,0,0.1,0C11.8,27.4,11.8,27.5,11.8,27.5z" class="st28"/><path d="M10.5,23C10.6,23,10.6,23,10.5,23c0.1,0.1,0.1,0.1,0.1,0.1C10.5,23.1,10.5,23.1,10.5,23	C10.4,23,10.5,23,10.5,23z" class="st29"/><path d="M18.6,30.8c0-0.1,0.1-0.2,0.1-0.2C18.8,30.8,18.7,30.8,18.6,30.8z" class="st30"/><path d="M21.5,30.5C21.5,30.5,21.5,30.5,21.5,30.5c0.1,0,0.1,0,0.2,0c0,0,0,0,0,0C21.6,30.6,21.6,30.6,21.5,30.5	C21.5,30.6,21.5,30.6,21.5,30.5z" class="st31"/><path d="M10.3,11C10.3,11.1,10.2,11.1,10.3,11c-0.1,0.1-0.1,0.1-0.1,0C10.2,11,10.2,11,10.3,11	C10.3,11,10.3,11,10.3,11z" class="st19"/><path d="M11.2,16.3c0,0-0.1,0-0.1-0.1c0,0,0,0,0,0C11.2,16.2,11.2,16.2,11.2,16.3C11.2,16.3,11.2,16.3,11.2,16.3z" class="st25"/><path d="M6.5,10.4C6.5,10.4,6.5,10.4,6.5,10.4C6.5,10.5,6.4,10.4,6.5,10.4C6.5,10.4,6.5,10.3,6.5,10.4	C6.6,10.3,6.5,10.3,6.5,10.4z" class="st32"/><path d="M6.8,14.2c0,0.1,0,0.1,0,0.2c0,0,0,0,0,0C6.8,14.4,6.8,14.3,6.8,14.2z" class="st33"/><path d="M18.2,31.2C18.1,31.2,18.1,31.2,18.2,31.2c-0.1,0.1-0.1,0.1-0.1,0C18,31.1,18.1,31.1,18.2,31.2	C18.1,31.1,18.1,31.2,18.2,31.2z" class="st34"/><path d="M13.2,6.4c0.1-0.1,0-0.2,0.1-0.3C13.3,6.2,13.3,6.3,13.2,6.4C13.2,6.4,13.2,6.4,13.2,6.4z" class="st35"/><path d="M12.6,27.6C12.6,27.6,12.6,27.6,12.6,27.6c-0.1-0.1,0-0.1,0-0.1C12.7,27.5,12.7,27.5,12.6,27.6	C12.7,27.6,12.7,27.6,12.6,27.6z" class="st36"/><path d="M20.5,32.4C20.5,32.4,20.5,32.4,20.5,32.4c-0.1,0-0.1,0-0.1,0C20.4,32.3,20.4,32.3,20.5,32.4	C20.5,32.3,20.5,32.3,20.5,32.4z" class="st37"/><path d="M15.5,26.8c0.1-0.1,0.2,0,0.2-0.1c0,0,0,0,0.1,0c0,0,0,0,0,0C15.6,26.8,15.5,26.8,15.5,26.8z" class="st38"/><path d="M8.3,13C8.3,13.1,8.3,13.1,8.3,13c-0.1,0.1-0.1,0-0.1,0C8.2,13,8.3,13,8.3,13C8.3,13,8.3,13,8.3,13z" class="st39"/><path d="M19.1,27.7C19.1,27.7,19.1,27.7,19.1,27.7C19.1,27.8,19.1,27.8,19.1,27.7C19.1,27.8,19,27.8,19.1,27.7	C19,27.7,19,27.7,19.1,27.7z" class="st29"/><path d="M12.7,21C12.7,21,12.6,21,12.7,21c-0.1,0-0.1,0-0.2,0C12.6,20.9,12.6,20.9,12.7,21z" class="st40"/><path d="M16,22.2c0,0,0,0.1,0,0.1C15.9,22.3,15.9,22.3,16,22.2C15.9,22.2,15.9,22.2,16,22.2C15.9,22.1,16,22.2,16,22.2	z" class="st41"/><path d="M22.5,31.1C22.5,31.1,22.5,31,22.5,31.1c0-0.1,0.1-0.1,0.1,0C22.6,31.1,22.5,31.1,22.5,31.1z" class="st42"/><path d="M8.5,20.3C8.5,20.3,8.5,20.2,8.5,20.3C8.5,20.3,8.5,20.3,8.5,20.3C8.5,20.3,8.5,20.3,8.5,20.3z" class="st43"/><path d="M16,29C16,29,16,29,16,29c0,0,0.1,0,0.1,0C16,29,16,29,16,29z" class="st44"/><path d="M12.5,9.6C12.5,9.6,12.5,9.6,12.5,9.6C12.5,9.5,12.5,9.5,12.5,9.6C12.5,9.5,12.5,9.5,12.5,9.6	C12.5,9.6,12.5,9.6,12.5,9.6z" class="st45"/><path d="M8.8,19.3C8.9,19.3,8.8,19.2,8.8,19.3C8.9,19.2,8.9,19.3,8.8,19.3C8.9,19.3,8.8,19.3,8.8,19.3z" class="st46"/><path d="M14.6,6.3C14.6,6.2,14.6,6.2,14.6,6.3C14.7,6.2,14.7,6.2,14.6,6.3C14.7,6.3,14.7,6.3,14.6,6.3z" class="st47"/><path d="M9.7,24.4C9.7,24.4,9.7,24.4,9.7,24.4C9.7,24.4,9.7,24.4,9.7,24.4C9.8,24.4,9.7,24.4,9.7,24.4z" class="st48"/><path d="M10.6,19.9C10.6,19.9,10.6,20,10.6,19.9c0,0.1,0.1,0.1,0,0.1C10.6,20,10.6,20,10.6,19.9	C10.6,20,10.6,19.9,10.6,19.9z" class="st49"/><path d="M12.5,16.5C12.5,16.5,12.5,16.4,12.5,16.5c-0.1-0.2-0.2-0.2-0.3-0.1c-0.2,0.1-0.2,0.1-0.3-0.1c-0.1-0.2-0.1-0.4-0.1-0.6	c0-0.4-0.1-0.8,0-1.2c0,0,0-0.1,0-0.1c0,0,0,0,0-0.1c0,0.5,0.1,1,0.3,1.5c0.1-0.1,0-0.2,0-0.3c0-0.2,0-0.5-0.1-0.7c0,0,0-0.1,0-0.1	c0,0,0-0.1,0-0.1c0,0,0.1,0,0.1,0.1c0.1,0.2,0.2,0.3,0.3,0.5c0.1,0.3,0.2,0.5,0.3,0.8c0,0.1,0,0.2-0.1,0.2c-0.1,0-0.1,0.1-0.1,0.2	C12.6,16.4,12.6,16.4,12.5,16.5z"/><path d="M14.6,15.1c0,0.1,0,0.1,0,0.1c0,0.1-0.1,0.2,0.1,0.2c0.1,0,0.1,0.1,0.1,0.2c0,0.1-0.1,0.3-0.2,0.4c0,0.1,0,0.2,0.1,0.2	c0,0,0,0,0,0.1c-0.1,0.2-0.1,0.3-0.3,0.5c-0.1,0.1-0.2,0.1-0.2,0c0-0.3-0.2-0.5-0.2-0.8c0-0.3,0.1-0.7,0.3-1c0-0.1,0.1-0.2,0.2-0.2	C14.6,14.9,14.6,15,14.6,15.1z"/><path d="M16.8,11.3c0,0.1,0,0.2-0.1,0.2c-0.1,0.3-0.3,0.5-0.5,0.8c-0.1,0.1-0.2,0.2-0.3,0.1c-0.1-0.1-0.1-0.2-0.1-0.3	c0-0.3,0.1-0.5,0.3-0.7c0.1-0.2,0.2-0.3,0.3-0.4c0,0,0.1-0.1,0.2-0.1c0.1,0,0.1,0.1,0,0.2c0,0.1,0,0.2-0.1,0.3	c-0.1,0.2-0.2,0.3-0.3,0.5c0,0.1-0.1,0.1,0,0.2c0,0,0.1,0,0.1-0.1c0.1-0.1,0.2-0.3,0.3-0.4C16.6,11.4,16.7,11.4,16.8,11.3z" class="st50"/><path d="M9.9,12.8c0.1,0.1,0.2,0.2,0.3,0.3c0,0,0,0,0.1,0.1c0,0,0.1,0.1,0.1,0.1c0.1,0,0-0.1,0-0.1	c0-0.1-0.1-0.3-0.1-0.4c0.1,0,0.1,0,0.1,0.1c0.1,0.1,0.2,0.2,0.3,0.3c0.3,0.2,0.3,0.6,0.1,0.8c-0.1,0.1-0.3,0.2-0.4,0	C10.1,13.5,10,13.2,9.9,12.8C9.8,12.8,9.9,12.8,9.9,12.8z" class="st50"/><path d="M11.1,12.1c0,0,0.1,0,0.1,0.1c0.4,0.3,0.7,0.7,0.9,1.1c0,0,0.1,0.1,0,0.1c0,0-0.1,0-0.1,0	c-0.3-0.2-0.5-0.4-0.8-0.6C11.1,12.7,11.1,12.4,11.1,12.1C11,12.2,11.1,12.1,11.1,12.1z" class="st50"/><path d="M12.1,11c0.1,0.3,0.2,0.5,0.5,0.8c0,0,0,0,0,0c0,0,0.1,0.1,0.1,0.2c0,0.1-0.1,0-0.2,0c0,0,0,0-0.1,0	c0.1,0.2,0.2,0.3,0.2,0.4c-0.1,0-0.1,0-0.2-0.1c-0.1-0.1-0.3-0.2-0.4-0.4c-0.1-0.1-0.2-0.2-0.1-0.4C12.1,11.5,12,11.2,12.1,11	C12,11,12.1,11,12.1,11z" class="st50"/><path d="M10.5,12.3C10.5,12.3,10.6,12.3,10.5,12.3c0.4,0.3,0.6,0.5,0.8,0.8c0,0,0.1,0.1,0,0.2c0,0.1-0.1,0-0.2,0	c-0.2-0.1-0.3-0.2-0.4-0.3C10.7,12.8,10.5,12.6,10.5,12.3C10.5,12.4,10.4,12.3,10.5,12.3z" class="st50"/><path d="M16.5,24.5c0-0.1,0-0.2,0.1-0.2c0.1,0,0.1,0.1,0.1,0.2c0.1,0.2,0.2,0.5,0.2,0.7c0,0.1,0,0.2,0,0.2	c-0.1,0-0.1-0.1-0.1-0.2C16.6,25.1,16.5,24.8,16.5,24.5z" class="st50"/><path d="M12.6,13c-0.1,0-1.1-0.8-1.2-0.9C11.7,12.1,12.5,12.7,12.6,13z" class="st51"/><path d="M15.4,20.4c-0.1-0.2-0.1-0.5-0.1-0.7c0-0.1,0-0.1,0.1-0.1c0.1,0,0.1,0.1,0.1,0.1C15.6,20,15.5,20.2,15.4,20.4z" class="st52"/><path d="M11.6,15.2c0,0.1,0,0.2-0.1,0.2c-0.1,0-0.1-0.1-0.1-0.2c0-0.1-0.1-0.1,0-0.2c0,0,0.1-0.1,0.2-0.1	C11.6,15,11.6,15.1,11.6,15.2z" class="st53"/><path d="M13,11.5c0,0,0,0.1,0,0.1c0,0,0,0-0.1,0c-0.1,0-0.2-0.2-0.2-0.2c0-0.1,0.1-0.1,0.2-0.1	C13,11.3,13,11.4,13,11.5z" class="st54"/><path d="M16,22.9C16,22.9,16,22.9,16,22.9c0.1-0.1,0.1-0.1,0.1,0c0.1,0.1,0.1,0.2,0.1,0.3c0,0.1,0.1,0.1,0,0.1	c-0.1,0-0.1,0-0.2-0.1C16,23.1,16,23,16,22.9z" class="st55"/><path d="M15.5,15.9c0.1-0.2,0.1-0.5,0.3-0.6C15.8,15.5,15.7,15.7,15.5,15.9C15.5,15.9,15.5,15.9,15.5,15.9z" class="st56"/><path d="M11.4,13.7c0.1,0.1,0.2,0.3,0.2,0.4C11.4,14.1,11.3,14,11.4,13.7z" class="st57"/><path d="M10.9,14.6c0,0.1,0,0.1,0,0.2c0,0,0,0,0,0c0,0,0,0,0,0c0-0.1,0-0.3,0.1-0.3c0,0,0,0,0,0	C10.9,14.5,10.9,14.6,10.9,14.6z" class="st58"/><path d="M15.4,15.6c-0.1-0.2,0.1-0.4,0.2-0.5C15.5,15.3,15.5,15.4,15.4,15.6z" class="st59"/><path d="M15.6,21.5c0,0,0,0.1,0,0.2c0,0,0,0.1-0.1,0.1c-0.1,0,0-0.1-0.1-0.1C15.4,21.5,15.5,21.5,15.6,21.5	C15.5,21.4,15.5,21.4,15.6,21.5C15.6,21.4,15.6,21.5,15.6,21.5z" class="st59"/><path d="M13.8,14.5c0,0.2,0,0.3-0.1,0.4c0,0,0,0,0,0c0,0,0,0,0,0C13.7,14.8,13.7,14.7,13.8,14.5z" class="st60"/><path d="M15.2,13.7c-0.1-0.1-0.1-0.3-0.1-0.4C15.2,13.4,15.2,13.5,15.2,13.7z" class="st61"/><path d="M11.9,18.1c0.1,0,0.1,0.1,0.1,0.1c0,0.1,0,0.1-0.1,0.1c-0.1,0-0.1-0.1-0.1-0.1C11.9,18.2,11.9,18.1,11.9,18.1z" class="st62"/><path d="M15.5,18c-0.1-0.2,0-0.2,0.1-0.4C15.6,17.8,15.5,17.9,15.5,18z" class="st63"/><path d="M11.1,13.7c0,0.1,0,0.1-0.1,0.1c-0.1,0-0.1,0-0.1-0.1C11,13.7,11,13.7,11.1,13.7	C11.1,13.7,11.1,13.7,11.1,13.7z" class="st64"/><path d="M13.2,18.8c-0.1-0.1-0.1-0.1-0.1-0.2C13.1,18.6,13.1,18.7,13.2,18.8z" class="st65"/><path d="M20.3,29.3C20.3,29.3,20.3,29.3,20.3,29.3c-0.1,0-0.1,0-0.1,0C20.2,29.2,20.2,29.2,20.3,29.3	C20.3,29.2,20.3,29.2,20.3,29.3z" class="st66"/><path d="M12.5,16.5c0.1,0,0-0.1,0.1-0.2C12.6,16.4,12.6,16.5,12.5,16.5c0,0.1,0,0.1,0,0.1	C12.6,16.5,12.6,16.5,12.5,16.5z" class="st67"/><path d="M15.5,17c0,0,0,0.1-0.1,0.1C15.4,17.1,15.4,17.1,15.5,17C15.5,17,15.5,17,15.5,17z" class="st68"/><path d="M11.9,10.5C11.9,10.6,11.9,10.6,11.9,10.5C11.8,10.6,11.8,10.6,11.9,10.5C11.8,10.5,11.8,10.5,11.9,10.5	C11.9,10.5,11.9,10.5,11.9,10.5z" class="st69"/><path d="M16.4,24C16.4,24,16.4,24.1,16.4,24C16.3,24,16.3,24,16.4,24C16.4,23.9,16.3,24,16.4,24z" class="st70"/><path d="M16.3,23.9C16.4,23.8,16.4,23.8,16.3,23.9C16.4,23.8,16.4,23.9,16.3,23.9C16.3,23.9,16.4,23.9,16.3,23.9z" class="st71"/><path d="M12.1,11C12.1,11,12,11,12.1,11C12,11,12,11,12,10.9C12.1,11,12.1,11,12.1,11z" class="st72"/><path d="M15.3,17.6C15.3,17.6,15.3,17.6,15.3,17.6C15.2,17.6,15.2,17.6,15.3,17.6C15.2,17.6,15.2,17.5,15.3,17.6	C15.3,17.5,15.3,17.5,15.3,17.6z" class="st73"/><path d="M15.9,22.2C15.9,22.3,15.9,22.3,15.9,22.2C15.9,22.3,15.9,22.3,15.9,22.2C15.9,22.3,15.9,22.3,15.9,22.2z" class="st19"/><path d="M15.3,14C15.3,14.1,15.2,14.1,15.3,14C15.2,14.1,15.2,14,15.3,14z" class="st74"/><path d="M15.2,12.8c0,0,0,0.1,0,0.1c0,0,0,0,0,0C15.1,12.9,15.1,12.9,15.2,12.8C15.1,12.9,15.1,12.8,15.2,12.8z" class="st75"/><path d="M15.2,12.8C15.1,12.8,15.1,12.9,15.2,12.8C15.1,12.9,15.1,12.8,15.2,12.8C15.1,12.8,15.1,12.8,15.2,12.8z" class="st66"/><path d="M15.5,15.9C15.5,15.9,15.5,15.9,15.5,15.9c0,0.1,0,0.1,0,0.1C15.4,15.9,15.4,15.9,15.5,15.9z" class="st76"/><path d="M16.3,23.9C16.4,23.9,16.4,23.9,16.3,23.9c0,0.1,0,0.1,0,0.1C16.3,24,16.3,23.9,16.3,23.9	C16.3,23.9,16.3,23.9,16.3,23.9z" class="st55"/><path d="M15.5,17C15.5,17,15.5,17,15.5,17C15.5,17,15.5,17,15.5,17C15.6,17,15.6,17,15.5,17z" class="st77"/><path d="M10.6,8c0-0.1,0.1-0.1,0.1-0.1c0.1-0.1,0.3-0.2,0.5-0.1c0.2,0.2,0.3,0.4,0.4,0.7c0,0.1,0,0.1,0,0.1	c-0.1,0-0.1,0-0.1,0c-0.1-0.1-0.2-0.1-0.2-0.2C11,8.2,10.9,8,10.6,8z" class="st50"/><path d="M16.5,7.9c0,0.2-0.1,0.3-0.3,0.2c-0.4-0.2-0.4-0.2-0.2-0.6c0.1-0.2,0.3-0.2,0.4,0C16.4,7.6,16.5,7.7,16.5,7.9z" class="st50"/><path d="M12.7,7.5c0.1-0.1,0.2-0.1,0.4-0.1c0.4,0,0.9,0.1,1.3,0.2c0.1,0,0.2,0,0.1,0.1c0,0.1-0.1,0.1-0.2,0.1	c-0.1,0-0.3,0-0.4,0c0,0-0.1,0-0.1,0c-0.2-0.2-0.4-0.2-0.6-0.2c-0.1,0-0.2,0-0.3,0C12.8,7.5,12.7,7.5,12.7,7.5z" class="st50"/><path d="M12,8c-0.2,0-0.4-0.1-0.5-0.3c0-0.1,0-0.1,0-0.1c0.1-0.1,0.1-0.1,0.2,0c0.2,0.1,0.3,0.2,0.4,0.3	C12.2,7.9,12.1,8,12,8z" class="st78"/><path d="M17.1,8C17,8,17,8,17,8c-0.1,0-0.2,0-0.2,0.1c0,0,0,0,0,0c0,0,0,0.1-0.1,0.1c0,0,0-0.1,0-0.1	c0.1-0.2,0.4-0.3,0.6-0.3c0.1,0,0.1,0,0.1,0.1C17.4,8,17.3,8,17.3,8C17.2,8,17.1,8,17.1,8z" class="st54"/><path d="M11,7.5c0,0-0.1,0-0.1-0.1c0-0.1,0.1-0.1,0.2-0.1c0,0,0.1,0,0.1,0C11.2,7.5,11.1,7.5,11,7.5z" class="st79"/><path d="M12.4,7.6C12.4,7.6,12.4,7.6,12.4,7.6c0-0.1,0-0.1,0.1-0.2c0,0,0,0,0,0C12.5,7.6,12.5,7.6,12.4,7.6z" class="st80"/><path d="M7.9,21.4c0,0,0-0.1,0-0.1c0,0,0,0,0,0C7.9,21.3,7.9,21.3,7.9,21.4C7.9,21.4,7.9,21.4,7.9,21.4z" class="st80"/><path d="M7.9,21.4C7.9,21.4,7.9,21.4,7.9,21.4C7.9,21.4,7.9,21.4,7.9,21.4C7.9,21.5,7.9,21.5,7.9,21.4z" class="st81"/><rect width="32.3" height="32.3" x="1.8" class="st82"/></svg>