<svg xmlns="http://www.w3.org/2000/svg" xmlns:xlink="http://www.w3.org/1999/xlink" width="198" height="46" viewBox="0 0 198 46"><defs><style>.a3{fill:#3f51b5}.b3{fill:#e91e63}.c3{fill:#424242}.d3{fill:#fff}.e3{fill:#e0e0e0}.f3{filter:url(#i3)}.g3{filter:url(#g3)}.h3{filter:url(#e3)}.i3{filter:url(#c3)}.j3{filter:url(#a3)}</style><filter id="a3" width="46" height="46" x="76" y="0" filterUnits="userSpaceOnUse"><feOffset dy="2" input="SourceAlpha"/><feGaussianBlur result="b" stdDeviation="3"/><feFlood flood-opacity=".161"/><feComposite in2="b" operator="in"/><feComposite in="SourceGraphic"/></filter><filter id="c3" width="46" height="46" x="114" y="0" filterUnits="userSpaceOnUse"><feOffset dy="2" input="SourceAlpha"/><feGaussianBlur result="d3" stdDeviation="3"/><feFlood flood-opacity=".161"/><feComposite in2="d3" operator="in"/><feComposite in="SourceGraphic"/></filter><filter id="e3" width="46" height="46" x="152" y="0" filterUnits="userSpaceOnUse"><feOffset dy="2" input="SourceAlpha"/><feGaussianBlur result="f3" stdDeviation="3"/><feFlood flood-opacity=".161"/><feComposite in2="f3" operator="in"/><feComposite in="SourceGraphic"/></filter><filter id="g3" width="46" height="46" x="0" y="0" filterUnits="userSpaceOnUse"><feOffset dy="2" input="SourceAlpha"/><feGaussianBlur result="h3" stdDeviation="3"/><feFlood flood-opacity=".161"/><feComposite in2="h3" operator="in"/><feComposite in="SourceGraphic"/></filter><filter id="i3" width="46" height="46" x="38" y="0" filterUnits="userSpaceOnUse"><feOffset dy="2" input="SourceAlpha"/><feGaussianBlur result="j3" stdDeviation="3"/><feFlood flood-opacity=".161"/><feComposite in2="j3" operator="in"/><feComposite in="SourceGraphic"/></filter></defs><g><g class="j3" transform="translate(-130 -365) matrix(1, 0, 0, 1, 130, 365)"><circle cx="14" cy="14" r="14" class="a3" transform="translate(85 7)"/></g><g class="i3" transform="translate(-130 -365) matrix(1, 0, 0, 1, 130, 365)"><circle cx="14" cy="14" r="14" class="b3" transform="translate(123 7)"/></g><g class="h3" transform="translate(-130 -365) matrix(1, 0, 0, 1, 130, 365)"><circle cx="14" cy="14" r="14" class="c3" transform="translate(161 7)"/></g><g class="g3" transform="translate(-130 -365) matrix(1, 0, 0, 1, 130, 365)"><circle cx="14" cy="14" r="14" class="d3" transform="translate(9 7)"/></g><g class="f3" transform="translate(-130 -365) matrix(1, 0, 0, 1, 130, 365)"><circle cx="14" cy="14" r="14" class="e3" transform="translate(47 7)"/></g></g></svg>